<svg width="24" height="25" viewBox="0 0 24 25" fill="none" xmlns="http://www.w3.org/2000/svg">
<path d="M12.0181 2.62207C9.77807 3.73307 8 4.62207 3 5.62207C3 6.75907 3 10.324 3 11.511C3 18.178 8.667 21.5111 12 22.6221C15.333 21.5111 21 18.178 21 11.511C21 10.286 21 6.81607 21 5.62207C16 4.62207 14.2221 3.73307 12.0181 2.62207ZM11.25 9.12207C11.25 8.70807 11.586 8.37207 12 8.37207C12.414 8.37207 12.75 8.70807 12.75 9.12207V12.1221C12.75 12.5361 12.414 12.8721 12 12.8721C11.586 12.8721 11.25 12.5361 11.25 12.1221V9.12207ZM12.02 16.1221C11.468 16.1221 11.0149 15.6741 11.0149 15.1221C11.0149 14.5701 11.458 14.1221 12.01 14.1221H12.02C12.573 14.1221 13.02 14.5701 13.02 15.1221C13.02 15.6741 12.572 16.1221 12.02 16.1221Z" fill="#FAFAFA"/>
</svg>
