<svg width="24" height="25" viewBox="0 0 24 25" fill="none" xmlns="http://www.w3.org/2000/svg">
<path d="M2.25 8.62207V5.12207C2.25 3.71307 3.091 2.87207 4.5 2.87207H8C8.414 2.87207 8.75 3.20807 8.75 3.62207C8.75 4.03607 8.414 4.37207 8 4.37207H4.5C3.911 4.37207 3.75 4.53307 3.75 5.12207V8.62207C3.75 9.03607 3.414 9.37207 3 9.37207C2.586 9.37207 2.25 9.03607 2.25 8.62207ZM19.5 2.87207H16C15.586 2.87207 15.25 3.20807 15.25 3.62207C15.25 4.03607 15.586 4.37207 16 4.37207H19.5C20.089 4.37207 20.25 4.53307 20.25 5.12207V8.62207C20.25 9.03607 20.586 9.37207 21 9.37207C21.414 9.37207 21.75 9.03607 21.75 8.62207V5.12207C21.75 3.71307 20.909 2.87207 19.5 2.87207ZM8 20.8721H4.5C3.911 20.8721 3.75 20.7111 3.75 20.1221V16.6221C3.75 16.2081 3.414 15.8721 3 15.8721C2.586 15.8721 2.25 16.2081 2.25 16.6221V20.1221C2.25 21.5311 3.091 22.3721 4.5 22.3721H8C8.414 22.3721 8.75 22.0361 8.75 21.6221C8.75 21.2081 8.414 20.8721 8 20.8721ZM21 15.8721C20.586 15.8721 20.25 16.2081 20.25 16.6221V20.1221C20.25 20.7111 20.089 20.8721 19.5 20.8721H16C15.586 20.8721 15.25 21.2081 15.25 21.6221C15.25 22.0361 15.586 22.3721 16 22.3721H19.5C20.909 22.3721 21.75 21.5311 21.75 20.1221V16.6221C21.75 16.2081 21.414 15.8721 21 15.8721ZM12.006 11.7891C13.568 11.7891 14.84 10.5181 14.84 8.95605C14.84 7.39405 13.569 6.12305 12.006 6.12305C10.443 6.12305 9.17297 7.39405 9.17297 8.95605C9.17297 10.5181 10.443 11.7891 12.006 11.7891ZM16.667 16.634C16.667 15.308 16 13.2891 13.334 13.2891C12.585 13.2891 12.027 13.2891 10.667 13.2891C7.99999 13.2891 7.33398 15.289 7.33398 16.634C7.33398 17.955 8.00106 18.6221 9.33606 18.6221H14.666C16 18.6221 16.667 17.955 16.667 16.634Z" fill="#EEEEEE"/>
</svg>
