<svg width="24" height="25" viewBox="0 0 24 25" fill="none" xmlns="http://www.w3.org/2000/svg">
<path d="M17.625 3.62207H6.375C4.125 3.62207 3 4.74707 3 6.99707V18.2471C3 20.4971 4.125 21.6221 6.375 21.6221H17.625C19.875 21.6221 21 20.4971 21 18.2471V6.99707C21 4.74707 19.875 3.62207 17.625 3.62207ZM12.0081 7.62207C13.6651 7.62207 15.0081 8.96507 15.0081 10.6221C15.0081 12.2791 13.6651 13.6221 12.0081 13.6221C10.3511 13.6221 9.00806 12.2791 9.00806 10.6221C9.00806 8.96507 10.3511 7.62207 12.0081 7.62207ZM17.62 20.1221H6.38C6.25 20.1221 6.13001 20.1221 6.01001 20.1121C6.14001 18.4121 7.10004 16.192 10.29 16.192H13.71C16.89 16.192 17.86 18.4321 17.99 20.1121C17.87 20.1221 17.75 20.1221 17.62 20.1221Z" fill="#FAFAFA"/>
</svg>
