<svg width="24" height="25" viewBox="0 0 24 25" fill="none" xmlns="http://www.w3.org/2000/svg">
<path d="M14 9.62207H10C9.45 9.62207 9 9.17207 9 8.62207C9 8.07207 9.45 7.62207 10 7.62207H14C14.55 7.62207 15 8.07207 15 8.62207C15 9.17207 14.55 9.62207 14 9.62207Z" fill="white"/>
<path d="M14 12.6221H10C9.45 12.6221 9 12.1721 9 11.6221C9 11.0721 9.45 10.6221 10 10.6221H14C14.55 10.6221 15 11.0721 15 11.6221C15 12.1721 14.55 12.6221 14 12.6221Z" fill="white"/>
<path d="M19.5 4.12207L18 2.62207L16.5 4.12207L15 2.62207L13.5 4.12207L12 2.62207L10.5 4.12207L9 2.62207L7.5 4.12207L6 2.62207V16.6221H4C3.45 16.6221 3 17.0721 3 17.6221V19.6221C3 21.2821 4.34 22.6221 6 22.6221H18C19.66 22.6221 21 21.2821 21 19.6221V2.62207L19.5 4.12207ZM15 20.6221H6C5.45 20.6221 5 20.1721 5 19.6221V18.6221H15V20.6221ZM19 19.6221C19 20.1721 18.55 20.6221 18 20.6221C17.45 20.6221 17 20.1721 17 19.6221V17.6221C17 17.0721 16.55 16.6221 16 16.6221H8V5.62207H19V19.6221Z" fill="white"/>
<path d="M17 9.62207C17.5523 9.62207 18 9.17436 18 8.62207C18 8.06979 17.5523 7.62207 17 7.62207C16.4477 7.62207 16 8.06979 16 8.62207C16 9.17436 16.4477 9.62207 17 9.62207Z" fill="white"/>
<path d="M17 12.6221C17.5523 12.6221 18 12.1744 18 11.6221C18 11.0698 17.5523 10.6221 17 10.6221C16.4477 10.6221 16 11.0698 16 11.6221C16 12.1744 16.4477 12.6221 17 12.6221Z" fill="white"/>
</svg>
