<svg width="24" height="25" viewBox="0 0 24 25" fill="none" xmlns="http://www.w3.org/2000/svg">
<path d="M10.48 11.7721C10.73 11.8821 10.99 11.9521 11.25 12.0121V21.5321C11.09 21.4921 10.93 21.4321 10.78 21.3621L4.78003 18.6921C3.70003 18.2121 3 17.1421 3 15.9521V9.29213C3 9.02213 3.03999 8.75212 3.10999 8.50212L10.48 11.7721ZM14.8199 9.54213L6.67004 5.71212L4.78003 6.55211C4.43003 6.70211 4.13 6.92212 3.87 7.18212L11.08 10.3921C11.66 10.6521 12.33 10.6521 12.92 10.3921L14.8199 9.54213ZM20.13 7.18212C19.87 6.92212 19.57 6.70211 19.22 6.55211L13.22 3.88213C12.44 3.53213 11.56 3.53213 10.78 3.88213L8.48999 4.90212L16.64 8.7321L20.13 7.18212ZM20.89 8.50212L17.38 10.0621V12.5121C17.38 12.9221 17.04 13.2621 16.63 13.2621C16.22 13.2621 15.88 12.9221 15.88 12.5121V10.7221L13.52 11.7721C13.27 11.8721 13.01 11.9521 12.75 12.0121V21.5321C12.91 21.4921 13.07 21.4321 13.22 21.3621L19.22 18.6921C20.3 18.2121 21 17.1421 21 15.9521V9.29213C21 9.02213 20.96 8.75212 20.89 8.50212Z" fill="#FAFAFA"/>
</svg>
