<svg width="24" height="25" viewBox="0 0 24 25" fill="none" xmlns="http://www.w3.org/2000/svg">
<path d="M17.625 3.62207H6.375C4.125 3.62207 3 4.74707 3 6.99707V18.2471C3 20.4971 4.125 21.6221 6.375 21.6221H17.625C19.875 21.6221 21 20.4971 21 18.2471V6.99707C21 4.74707 19.875 3.62207 17.625 3.62207ZM12.02 18.1221C11.468 18.1221 11.0149 17.6741 11.0149 17.1221C11.0149 16.5701 11.458 16.1221 12.01 16.1221H12.02C12.573 16.1221 13.02 16.5701 13.02 17.1221C13.02 17.6741 12.572 18.1221 12.02 18.1221ZM13.603 13.1501C12.872 13.6401 12.7359 13.9131 12.7109 13.9851C12.6059 14.2981 12.314 14.4961 12 14.4961C11.921 14.4961 11.841 14.484 11.762 14.457C11.369 14.325 11.1581 13.9001 11.2891 13.5071C11.4701 12.9671 11.9391 12.4581 12.7671 11.9031C13.7881 11.2191 13.657 10.4691 13.614 10.2231C13.501 9.56914 12.95 9.01195 12.303 8.89795C11.81 8.80795 11.3301 8.93695 10.9541 9.25195C10.5761 9.56895 10.3589 10.036 10.3589 10.532C10.3589 10.946 10.0229 11.282 9.60889 11.282C9.19489 11.282 8.85889 10.946 8.85889 10.532C8.85889 9.59098 9.27099 8.70603 9.98999 8.10303C10.702 7.50703 11.639 7.25812 12.564 7.42212C13.831 7.64612 14.8701 8.69304 15.0911 9.96704C15.3111 11.229 14.782 12.3601 13.603 13.1501Z" fill="#FAFAFA"/>
</svg>
