<svg width="24" height="25" viewBox="0 0 24 25" fill="none" xmlns="http://www.w3.org/2000/svg">
<path d="M21 9.62207V6.62207C21 4.62207 20 3.62207 18 3.62207H6C4 3.62207 3 4.62207 3 6.62207V9.62207C3 11.6221 4 12.6221 6 12.6221C4 12.6221 3 13.6221 3 15.6221V18.6221C3 20.6221 4 21.6221 6 21.6221H18C20 21.6221 21 20.6221 21 18.6221V15.6221C21 13.6221 20 12.6221 18 12.6221C20 12.6221 21 11.6221 21 9.62207ZM14.5 18.1221C13.948 18.1221 13.5 17.6741 13.5 17.1221C13.5 16.5701 13.948 16.1221 14.5 16.1221C15.052 16.1221 15.5 16.5701 15.5 17.1221C15.5 17.6741 15.052 18.1221 14.5 18.1221ZM14.5 9.12207C13.948 9.12207 13.5 8.67407 13.5 8.12207C13.5 7.57007 13.948 7.12207 14.5 7.12207C15.052 7.12207 15.5 7.57007 15.5 8.12207C15.5 8.67407 15.052 9.12207 14.5 9.12207ZM18.5 17.1221C18.5 17.6741 18.052 18.1221 17.5 18.1221C16.948 18.1221 16.5 17.6741 16.5 17.1221C16.5 16.5701 16.948 16.1221 17.5 16.1221C18.052 16.1221 18.5 16.5701 18.5 17.1221ZM17.5 9.12207C16.948 9.12207 16.5 8.67407 16.5 8.12207C16.5 7.57007 16.948 7.12207 17.5 7.12207C18.052 7.12207 18.5 7.57007 18.5 8.12207C18.5 8.67407 18.052 9.12207 17.5 9.12207Z" fill="#FAFAFA"/>
</svg>
