<svg width="24" height="25" viewBox="0 0 24 25" fill="none" xmlns="http://www.w3.org/2000/svg">
<path d="M12.009 3.02207C9.7478 3.02207 7.90903 4.86084 7.90903 7.12207C7.90903 9.3833 9.7478 11.2221 12.009 11.2221C14.2703 11.2221 16.109 9.3833 16.109 7.12207C16.109 4.86084 14.2703 3.02207 12.009 3.02207ZM14 13.0221H10C7.94284 13.0221 6.5383 13.7767 5.65007 14.8636C4.76455 15.9471 4.4 17.3511 4.4 18.6411C4.4 19.7966 4.7075 20.6962 5.32154 21.3064C5.93547 21.9165 6.84039 22.2221 8.00305 22.2221H15.9969C17.1596 22.2221 18.0645 21.9165 18.6785 21.3064C19.2925 20.6962 19.6 19.7966 19.6 18.6411C19.6 17.3511 19.2354 15.9471 18.3499 14.8636C17.4617 13.7767 16.0572 13.0221 14 13.0221Z" fill="white" stroke="white" stroke-width="0.2"/>
</svg>
