<svg width="24" height="25" viewBox="0 0 24 25" fill="none" xmlns="http://www.w3.org/2000/svg">
<path d="M19.627 9.37402C19.323 10.329 18.5431 11.1041 17.5861 11.4031C16.0381 11.8871 14.566 11.2231 13.83 10.0541C13.772 9.96208 13.776 9.8461 13.829 9.7511C14.264 8.9751 14.511 8.07907 14.511 7.12207C14.511 6.79007 14.4819 6.46605 14.424 6.14905C14.405 6.04505 14.4369 5.93704 14.5179 5.86804C15.0729 5.39704 15.791 5.12207 16.561 5.12207C18.677 5.12207 20.327 7.17302 19.627 9.37402ZM18.11 12.9021H16.13C15.96 12.9021 15.83 13.032 15.83 13.202C15.83 13.282 15.86 13.3621 15.92 13.4121C15.93 13.4221 15.94 13.432 15.95 13.442C17.35 14.792 18 16.7221 18 18.6421C18 19.0121 17.98 19.372 17.92 19.702C17.91 19.746 17.907 19.7831 17.907 19.8231C17.907 19.9931 18.04 20.1221 18.2 20.1221H19.66C21.49 20.1221 22.5 19.1221 22.5 17.3021C22.5 15.2721 21.35 12.9021 18.11 12.9021ZM9.01001 3.12207C6.80001 3.12207 5.01001 4.91207 5.01001 7.12207C5.01001 9.33207 6.80001 11.1221 9.01001 11.1221C11.21 11.1221 13.01 9.33207 13.01 7.12207C13.01 4.91207 11.21 3.12207 9.01001 3.12207ZM11 13.1221H7C2.94 13.1221 1.5 16.0921 1.5 18.6421C1.5 20.9221 2.71 22.1221 5 22.1221H13C15.29 22.1221 16.5 20.9221 16.5 18.6421C16.5 16.0921 15.06 13.1221 11 13.1221Z" fill="#FAFAFA"/>
</svg>
